# xmcd
#
# Track frame offsets: 
#        182
#        14390
#        27202
#        39087
#        51335
#        67317
#        75410
#        88945
#        107012
#        125977
#        137967
#        153105
#        166345
#        181722
#        191880
#
# Disc length: 2774 seconds
#
# Revision: 1
# Processed by: cddbd v1.4PL0 Copyright (c) Steve Scherf et al.
# Submitted via: ExactAudioCopy v0.90b4
#
DISCID=c90ad40f
DTITLE=Johnny Farago - Je Me Souviens
DYEAR=1994
DGENRE=Country
TTITLE0=Du soleil
TTITLE1=Un soir sans toi
TTITLE2=Je t'aime je te veux
TTITLE3=Etre naturel
TTITLE4=Amigo
TTITLE5=T'aurais pas dû mourir si jeune
TTITLE6=J'ai ta photo
TTITLE7=Ma poupée d'amour
TTITLE8=Parce qu'elle est là
TTITLE9=Si tu pars emmène-moi
TTITLE10=Trois p'tits coups
TTITLE11=Cherie je me souviens
TTITLE12=Le King n'est plus
TTITLE13=T'ai-je dit
TTITLE14=IL ferait si bon
EXTD=
EXTT0=
EXTT1=
EXTT2=
EXTT3=
EXTT4=
EXTT5=
EXTT6=
EXTT7=
EXTT8=
EXTT9=
EXTT10=
EXTT11=
EXTT12=
EXTT13=
EXTT14=
PLAYORDER=
